<svg width="137" height="53" viewBox="0 0 137 53" fill="none" xmlns="http://www.w3.org/2000/svg">
<path d="M28.4495 35.3693C19.4978 41.2405 9.65065 42.0504 6.45516 37.1783C3.25967 32.3062 7.92595 23.5971 16.8776 17.7259C25.8292 11.8547 35.6764 11.0448 38.8719 15.9169C42.0674 20.789 37.4011 29.4981 28.4495 35.3693ZM17.591 18.8136C9.74309 23.9609 5.65217 31.5962 8.45366 35.8676C11.2551 40.1389 19.8882 39.4288 27.7361 34.2816C35.584 29.1343 39.6749 21.499 36.8734 17.2277C34.0719 12.9563 25.4389 13.6664 17.591 18.8136Z" fill="url(#paint0_linear_390_73802)"/>
<g filter="url(#filter0_d_390_73802)">
<path d="M42.0086 26.4628C42.0086 37.1794 33.321 45.867 22.6044 45.867C11.8877 45.867 3.2002 37.1794 3.2002 26.4628C3.2002 15.7461 11.8877 7.05859 22.6044 7.05859C33.321 7.05859 42.0086 15.7461 42.0086 26.4628ZM5.59305 26.4628C5.59305 35.8579 13.2093 43.4741 22.6044 43.4741C31.9995 43.4741 39.6157 35.8579 39.6157 26.4628C39.6157 17.0677 31.9995 9.45145 22.6044 9.45145C13.2093 9.45145 5.59305 17.0677 5.59305 26.4628Z" fill="white"/>
</g>
<path d="M28.4683 17.5688C37.369 23.4059 41.9943 32.0875 38.7991 36.9597C35.6039 41.832 25.7982 41.0499 16.8975 35.2129C7.99673 29.3759 3.37146 20.6943 6.56666 15.822C9.76185 10.9497 19.5675 11.7318 28.4683 17.5688ZM17.6108 34.1251C25.4141 39.2425 34.0107 39.9281 36.812 35.6566C39.6132 31.3851 35.5582 23.7739 27.7549 18.6566C19.9517 13.5393 11.355 12.8536 8.55378 17.1251C5.75256 21.3967 9.80753 29.0078 17.6108 34.1251Z" fill="white"/>
<path d="M24.5474 20.869C24.5798 21.0012 24.5852 21.1039 24.5648 21.2384C24.557 21.2923 24.557 21.2923 24.5492 21.3473C24.5434 21.386 24.5377 21.4247 24.5318 21.4646C24.3464 22.8172 24.1634 24.3732 25.0183 25.5372C25.2134 25.778 25.4494 25.9813 25.6924 26.1716C25.7189 26.1928 25.7454 26.2139 25.7727 26.2357C26.0773 26.4648 26.4164 26.6236 26.758 26.7883C26.8607 26.8377 26.9631 26.8877 27.0654 26.9378C27.509 27.154 27.9571 27.3587 28.4089 27.5569C28.2364 27.6159 28.1024 27.5946 27.9263 27.5727C26.0661 27.3443 26.0661 27.3443 24.2661 27.7615C24.2254 27.7778 24.1847 27.794 24.1427 27.8108C22.8582 28.4353 22.2382 30.3027 21.7394 31.5106C21.7127 31.5035 21.6859 31.4963 21.6583 31.4889C21.665 31.438 21.6718 31.3871 21.6787 31.3347C22.0214 28.9964 22.0214 28.9964 21.2492 26.8381C20.5777 25.9985 19.5731 25.59 18.6231 25.1563C18.3358 25.0248 18.0514 24.8873 17.7671 24.7492C17.7708 24.7357 17.7744 24.7223 17.7781 24.7084C17.8133 24.7123 17.8485 24.7162 17.8847 24.7203C20.3076 25.0873 20.3076 25.0873 22.5208 24.2492C23.2875 23.6034 23.7038 22.6939 24.1016 21.789C24.1813 21.6085 24.2679 21.4322 24.3567 21.2561C24.3925 21.1835 24.4283 21.111 24.464 21.0383C24.4918 20.9819 24.5196 20.9254 24.5474 20.869Z" fill="white"/>
<path d="M67.0332 41.656C64.2179 41.656 61.7989 41.0547 59.7762 39.852C57.7535 38.622 56.1955 36.8727 55.1022 34.604C54.0089 32.3353 53.4622 29.6293 53.4622 26.486C53.4622 23.3427 54.0089 20.6367 55.1022 18.368C56.1955 16.072 57.7535 14.309 59.7762 13.079C61.7989 11.849 64.2179 11.234 67.0332 11.234C69.8759 11.234 72.3085 11.849 74.3312 13.079C76.3812 14.309 77.9392 16.072 79.0052 18.368C80.0985 20.6367 80.6452 23.3427 80.6452 26.486C80.6452 29.6293 80.0985 32.3353 79.0052 34.604C77.9392 36.8727 76.3812 38.622 74.3312 39.852C72.3085 41.0547 69.8759 41.656 67.0332 41.656ZM67.0332 37.597C68.9192 37.597 70.5319 37.1597 71.8712 36.285C73.2379 35.4103 74.2765 34.153 74.9872 32.513C75.6979 30.8457 76.0532 28.8367 76.0532 26.486C76.0532 24.1353 75.6979 22.1263 74.9872 20.459C74.2765 18.7917 73.2379 17.5207 71.8712 16.646C70.5319 15.744 68.9192 15.293 67.0332 15.293C65.1745 15.293 63.5755 15.744 62.2362 16.646C60.8969 17.5207 59.8582 18.7917 59.1202 20.459C58.4095 22.1263 58.0542 24.1353 58.0542 26.486C58.0542 28.8367 58.4095 30.8457 59.1202 32.513C59.8582 34.153 60.8969 35.4103 62.2362 36.285C63.5755 37.1597 65.1745 37.597 67.0332 37.597ZM82.5232 41V19.188H86.5002L86.6642 24.969L86.2952 24.846C86.5959 22.878 87.1972 21.443 88.0992 20.541C89.0286 19.639 90.2722 19.188 91.8302 19.188H93.9212V23.083H91.8302C90.7369 23.083 89.8212 23.2607 89.0832 23.616C88.3452 23.9713 87.7849 24.518 87.4022 25.256C87.0469 25.994 86.8692 26.9507 86.8692 28.126V41H82.5232ZM105.363 41.492C103.86 41.492 102.52 41.164 101.345 40.508C100.197 39.8247 99.3085 38.8953 98.6799 37.72L98.5569 41H94.4979V11.89H98.8439V22.263C99.4179 21.3063 100.265 20.4727 101.386 19.762C102.534 19.0513 103.86 18.696 105.363 18.696C107.249 18.696 108.889 19.1607 110.283 20.09C111.677 21.0193 112.743 22.345 113.481 24.067C114.246 25.7617 114.629 27.7707 114.629 30.094C114.629 32.4173 114.246 34.44 113.481 36.162C112.743 37.8567 111.677 39.1687 110.283 40.098C108.889 41.0273 107.249 41.492 105.363 41.492ZM104.666 37.72C106.333 37.72 107.659 37.0503 108.643 35.711C109.627 34.3443 110.119 32.472 110.119 30.094C110.119 27.716 109.627 25.8573 108.643 24.518C107.659 23.1513 106.347 22.468 104.707 22.468C103.477 22.468 102.425 22.7687 101.55 23.37C100.675 23.9713 100.006 24.846 99.5409 25.994C99.0762 27.1147 98.8439 28.4813 98.8439 30.094C98.8439 31.652 99.0762 33.005 99.5409 34.153C100.006 35.301 100.675 36.1893 101.55 36.818C102.425 37.4193 103.463 37.72 104.666 37.72ZM116.042 41V19.188H120.388V41H116.042ZM115.96 16.031V11.685H120.47V16.031H115.96ZM130.415 41C128.337 41 126.807 40.5217 125.823 39.565C124.839 38.6083 124.347 37.1187 124.347 35.096V14.063H128.693V34.768C128.693 35.7793 128.911 36.4763 129.349 36.859C129.786 37.2417 130.456 37.433 131.358 37.433H134.474V41H130.415ZM121.026 22.755V19.188H134.474V22.755H121.026Z" fill="white"/>
<defs>
<filter id="filter0_d_390_73802" x="0.000195265" y="4.85859" width="45.2086" height="45.2083" filterUnits="userSpaceOnUse" color-interpolation-filters="sRGB">
<feFlood flood-opacity="0" result="BackgroundImageFix"/>
<feColorMatrix in="SourceAlpha" type="matrix" values="0 0 0 0 0 0 0 0 0 0 0 0 0 0 0 0 0 0 127 0" result="hardAlpha"/>
<feOffset dy="1"/>
<feGaussianBlur stdDeviation="1.6"/>
<feComposite in2="hardAlpha" operator="out"/>
<feColorMatrix type="matrix" values="0 0 0 0 0 0 0 0 0 0 0 0 0 0 0 0 0 0 0.25 0"/>
<feBlend mode="normal" in2="BackgroundImageFix" result="effect1_dropShadow_390_73802"/>
<feBlend mode="normal" in="SourceGraphic" in2="effect1_dropShadow_390_73802" result="shape"/>
</filter>
<linearGradient id="paint0_linear_390_73802" x1="19.8407" y1="28.4295" x2="29.4208" y2="37.0577" gradientUnits="userSpaceOnUse">
<stop stop-color="white"/>
<stop offset="1"/>
</linearGradient>
</defs>
</svg>
